HIERARCHY
ROOT hip
{
  OFFSET 0 0 0
  CHANNELS 6 Xposition Yposition Zposition Zrotation Yrotation Xrotation
  JOINT abdomen
  {
    OFFSET 0 20.6881 -0.73152
    CHANNELS 3 Zrotation Xrotation Yrotation
    JOINT chest
    {
      OFFSET 0 11.7043 -0.48768
      CHANNELS 3 Zrotation Xrotation Yrotation
      JOINT neck
      {
        OFFSET 0 22.1894 -2.19456
        CHANNELS 3 Zrotation Xrotation Yrotation
        JOINT head
        {
          OFFSET -0.24384 7.07133 1.2192
          CHANNELS 3 Zrotation Xrotation Yrotation
          JOINT leftEye
          {
            OFFSET 4.14528 8.04674 8.04672
            CHANNELS 3 Zrotation Xrotation Yrotation
            End Site
            {
              OFFSET 1 0 0
            }
          }
          JOINT rightEye
          {
            OFFSET -3.6576 8.04674 8.04672
            CHANNELS 3 Zrotation Xrotation Yrotation
            End Site
            {
              OFFSET 1 0 0
            }
          }
        }
      }
      JOINT rCollar
      {
        OFFSET -2.68224 19.2634 -4.8768
        CHANNELS 3 Zrotation Xrotation Yrotation
        JOINT rShldr
        {
          OFFSET -8.77824 -1.95073 1.46304
          CHANNELS 3 Zrotation Xrotation Yrotation
          JOINT rForeArm
          {
            OFFSET -28.1742 -1.7115 0.48768
            CHANNELS 3 Zrotation Xrotation Yrotation
            JOINT rHand
            {
              OFFSET -22.5879 0.773209 7.07136
              CHANNELS 3 Zrotation Xrotation Yrotation
              JOINT rThumb1
              {
                OFFSET -1.2192 -0.487915 3.41376
                CHANNELS 3 Zrotation Xrotation Yrotation
                JOINT rThumb2
                {
                  OFFSET -3.37035 -0.52449 3.41376
                  CHANNELS 3 Zrotation Xrotation Yrotation
                  End Site
                  {
                    OFFSET -1.78271 -1.18214 1.43049
                  }
                }
              }
              JOINT rIndex1
              {
                OFFSET -7.75947 0.938293 5.60832
                CHANNELS 3 Zrotation Xrotation Yrotation
                JOINT rIndex2
                {
                  OFFSET -2.54057 -0.884171 1.56538
                  CHANNELS 3 Zrotation Xrotation Yrotation
                  End Site
                  {
                    OFFSET -1.62519 -0.234802 1.16502
                  }
                }
              }
              JOINT rMid1
              {
                OFFSET -8.24714 1.18213 3.41376
                CHANNELS 3 Zrotation Xrotation Yrotation
                JOINT rMid2
                {
                  OFFSET -3.10165 -0.590103 1.0647
                  CHANNELS 3 Zrotation Xrotation Yrotation
                  End Site
                  {
                    OFFSET -2.48547 -0.328903 0.83742
                  }
                }
              }
              JOINT rRing1
              {
                OFFSET -8.82822 0.546677 1.51678
                CHANNELS 3 Zrotation Xrotation Yrotation
                JOINT rRing2
                {
                  OFFSET -2.60934 -0.819778 -0.0198488
                  CHANNELS 3 Zrotation Xrotation Yrotation
                  End Site
                  {
                    OFFSET -2.33842 -0.294052 0.168128
                  }
                }
              }
              JOINT rPinky1
              {
                OFFSET -8.27202 -0.0477905 -0.4584
                CHANNELS 3 Zrotation Xrotation Yrotation
                JOINT rPinky2
                {
                  OFFSET -1.82734 -0.647385 -0.700984
                  CHANNELS 3 Zrotation Xrotation Yrotation
                  End Site
                  {
                    OFFSET -1.69225 -0.51767 -0.607171
                  }
                }
              }
            }
          }
        }
      }
      JOINT lCollar
      {
        OFFSET 2.68224 19.2634 -4.8768
        CHANNELS 3 Zrotation Xrotation Yrotation
        JOINT lShldr
        {
          OFFSET 8.77824 -1.95073 1.46304
          CHANNELS 3 Zrotation Xrotation Yrotation
          JOINT lForeArm
          {
            OFFSET 28.1742 -1.7115 0.48768
            CHANNELS 3 Zrotation Xrotation Yrotation
            JOINT lHand
            {
              OFFSET 22.5879 0.773209 7.07136
              CHANNELS 3 Zrotation Xrotation Yrotation
              JOINT lThumb1
              {
                OFFSET 1.2192 -0.487915 3.41376
                CHANNELS 3 Zrotation Xrotation Yrotation
                JOINT lThumb2
                {
                  OFFSET 3.37035 -0.52449 3.41376
                  CHANNELS 3 Zrotation Xrotation Yrotation
                  End Site
                  {
                    OFFSET 1.78271 -1.18214 1.43049
                  }
                }
              }
              JOINT lIndex1
              {
                OFFSET 7.75947 0.938293 5.60832
                CHANNELS 3 Zrotation Xrotation Yrotation
                JOINT lIndex2
                {
                  OFFSET 2.54057 -0.884171 1.56538
                  CHANNELS 3 Zrotation Xrotation Yrotation
                  End Site
                  {
                    OFFSET 1.62519 -0.234802 1.16502
                  }
                }
              }
              JOINT lMid1
              {
                OFFSET 8.24714 1.18213 3.41376
                CHANNELS 3 Zrotation Xrotation Yrotation
                JOINT lMid2
                {
                  OFFSET 3.10165 -0.590103 1.0647
                  CHANNELS 3 Zrotation Xrotation Yrotation
                  End Site
                  {
                    OFFSET 2.48547 -0.328903 0.83742
                  }
                }
              }
              JOINT lRing1
              {
                OFFSET 8.82822 0.546677 1.51678
                CHANNELS 3 Zrotation Xrotation Yrotation
                JOINT lRing2
                {
                  OFFSET 2.60934 -0.819778 -0.0198488
                  CHANNELS 3 Zrotation Xrotation Yrotation
                  End Site
                  {
                    OFFSET 2.33842 -0.294052 0.168128
                  }
                }
              }
              JOINT lPinky1
              {
                OFFSET 8.27202 -0.0477905 -0.4584
                CHANNELS 3 Zrotation Xrotation Yrotation
                JOINT lPinky2
                {
                  OFFSET 1.82734 -0.647385 -0.700984
                  CHANNELS 3 Zrotation Xrotation Yrotation
                  End Site
                  {
                    OFFSET 1.69225 -0.51767 -0.607171
                  }
                }
              }
            }
          }
        }
      }
    }
  }
  JOINT rButtock
  {
    OFFSET -8.77824 4.35084 1.2192
    CHANNELS 3 Zrotation Xrotation Yrotation
    JOINT rThigh
    {
      OFFSET 0 -1.70687 -2.19456
      CHANNELS 3 Zrotation Xrotation Yrotation
      JOINT rShin
      {
        OFFSET 0 -36.8199 0.73152
        CHANNELS 3 Zrotation Xrotation Yrotation
        JOINT rFoot
        {
          OFFSET 0.73152 -45.1104 -5.12064
          CHANNELS 3 Zrotation Xrotation Yrotation
          End Site
          {
            OFFSET -1.1221 -3.69964 12.103
          }
        }
      }
    }
  }
  JOINT lButtock
  {
    OFFSET 8.77824 4.35084 1.2192
    CHANNELS 3 Zrotation Xrotation Yrotation
    JOINT lThigh
    {
      OFFSET 0 -1.70687 -2.19456
      CHANNELS 3 Zrotation Xrotation Yrotation
      JOINT lShin
      {
        OFFSET 0 -36.8199 0.73152
        CHANNELS 3 Zrotation Xrotation Yrotation
        JOINT lFoot
        {
          OFFSET -0.73152 -45.1104 -5.12064
          CHANNELS 3 Zrotation Xrotation Yrotation
          End Site
          {
            OFFSET 1.1221 -3.69964 12.103
          }
        }
      }
    }
  }
}
MOTION
Frames:	4
Frame Time:	0.00833333
-24.0106 92.2436 119.545 -118.641 -72.8133 -229.955 -12.529 6.24519 -6.89552 3.66292 5.80127 -2.46139 -2.12611 15.278 -10.4809 21.0031 -18.1362 -18.3284 -0.0 0.0 0.0 -0.0 0.0 0.0 -3.16547e-13 1.63974e-12 3.04733e-13 81.7904 18.9382 -18.8187 -15.1941 -7.95954 27.9891 -0.767819 24.0733 3.59987 7.44996e-10 -7.52331e-09 4.55797e-09 1.37329e-09 -1.29137e-08 7.85987e-09 7.44998e-10 -7.52332e-09 4.55796e-09 7.73091 5.47488 0.417314 7.44996e-10 -7.52332e-09 4.55797e-09 2.90554 0.965183 0.102902 7.45001e-10 -7.52332e-09 4.55797e-09 10.2786 0.731801 0.0259123 7.44991e-10 -7.52331e-09 4.55798e-09 2.22167 -0.733487 -0.20892 -3.16669e-13 1.63973e-12 3.04542e-13 -66.4182 15.3676 6.24325 19.0557 -11.8688 -36.4332 0.175656 11.8539 -1.69041 3.48232e-10 -4.77884e-10 1.44517e-09 6.12721e-10 -8.28118e-10 2.50072e-09 3.48234e-10 -4.77883e-10 1.44518e-09 -7.73091 5.47488 -0.417314 3.48243e-10 -4.77889e-10 1.44515e-09 -2.90554 0.965183 -0.102902 3.48234e-10 -4.77884e-10 1.44516e-09 -10.2786 0.731801 -0.0259123 3.48239e-10 -4.77883e-10 1.44515e-09 -2.22167 -0.733487 0.20892 -2.03217e-16 0.0 -3.88251e-19 -29.5758 -34.3433 -36.3497 -0.578912 42.6134 -0.106553 1.92359 27.8085 -9.0026 2.03217e-16 0.0 3.88251e-19 18.7714 -26.4532 -19.464 -0.0777974 33.2124 -1.06491 -3.67574 20.1942 11.1295
-23.8683 92.0434 118.66 -120.137 -73.6383 -228.031 -12.204 5.97041 -7.29227 3.79985 5.95171 -2.56091 -2.06832 15.5495 -10.5627 20.9051 -19.0095 -18.323 -0.0 0.0 0.0 -0.0 0.0 0.0 -1.72639e-13 1.20227e-12 2.00471e-13 80.8264 18.8189 -18.558 -15.1405 -7.91258 27.8782 -0.790168 24.3984 3.65482 1.50327e-09 -2.50792e-09 1.24104e-09 2.62165e-09 -4.26728e-09 2.11176e-09 1.50327e-09 -2.50791e-09 1.24103e-09 7.73091 5.47488 0.417314 1.50327e-09 -2.50792e-09 1.24104e-09 2.90554 0.965183 0.102902 1.50327e-09 -2.50792e-09 1.24104e-09 10.2786 0.731801 0.0259123 1.50327e-09 -2.50792e-09 1.24105e-09 2.22167 -0.733487 -0.20892 -1.72807e-13 1.20227e-12 2.00279e-13 -67.4421 15.2779 6.12436 19.6102 -12.5249 -37.7631 0.167106 11.5601 -1.64737 1.75688e-09 -3.84559e-11 4.30292e-10 3.03877e-09 -6.8043e-11 7.36359e-10 1.75688e-09 -3.84547e-11 4.30292e-10 -7.73091 5.47488 -0.417314 1.75689e-09 -3.84578e-11 4.3028e-10 -2.90554 0.965183 -0.102902 1.75688e-09 -3.84551e-11 4.30285e-10 -10.2786 0.731801 -0.0259123 1.75688e-09 -3.84542e-11 4.30278e-10 -2.22167 -0.733487 0.20892 -2.03217e-16 0.0 -3.88251e-19 -28.2758 -33.5462 -36.0281 -0.526312 40.3314 -0.168148 2.33707 28.1198 -9.85903 2.03217e-16 0.0 3.88251e-19 18.5158 -26.9593 -19.4495 -0.0726282 32.9453 -1.01794 -4.09705 21.2338 11.8865
-23.7167 91.8301 117.742 -121.752 -74.3731 -226.03 -11.8848 5.69347 -7.68384 3.90588 6.10398 -2.65931 -2.01499 15.8648 -10.6441 20.7739 -19.9149 -18.3176 -0.0 0.0 0.0 -0.0 0.0 0.0 -3.81764e-14 7.23255e-13 6.99711e-14 79.7319 18.7387 -18.1628 -15.0982 -7.87563 27.791 -0.81698 24.7764 3.71922 2.38497e-09 2.68774e-09 -2.03559e-09 4.08378e-09 4.69586e-09 -3.56955e-09 2.38497e-09 2.68775e-09 -2.03561e-09 7.73091 5.47488 0.417314 2.38497e-09 2.68774e-09 -2.0356e-09 2.90554 0.965183 0.102902 2.38497e-09 2.68774e-09 -2.03559e-09 10.2786 0.731801 0.0259123 2.38496e-09 2.68774e-09 -2.03559e-09 2.22167 -0.733487 -0.20892 -3.83866e-14 7.23256e-13 6.97746e-14 -68.5025 15.1425 5.99323 20.1777 -13.2308 -39.1438 0.157867 11.2413 -1.60072 3.19835e-09 4.19217e-10 -5.21612e-10 5.52196e-09 7.23623e-10 -9.20635e-10 3.19835e-09 4.19218e-10 -5.21613e-10 -7.73091 5.47488 -0.417314 3.19835e-09 4.19218e-10 -5.21616e-10 -2.90554 0.965183 -0.102902 3.19834e-09 4.19218e-10 -5.21617e-10 -10.2786 0.731801 -0.0259123 3.19835e-09 4.19219e-10 -5.21621e-10 -2.22167 -0.733487 0.20892 -2.03217e-16 0.0 -3.88251e-19 -27.0928 -32.8178 -35.6157 -0.484746 38.2353 -0.216095 2.73199 28.1185 -10.7946 2.03217e-16 0.0 3.88251e-19 18.2127 -27.4412 -19.3111 -0.066642 32.6569 -0.968299 -4.47988 22.3386 12.4397
-23.5603 91.5767 116.87 -124.429 -75.2197 -222.986 -11.5892 5.45076 -8.0506 3.95346 6.22691 -2.75104 -1.99978 16.1779 -10.7323 20.579 -20.7157 -18.353 -0.0 0.0 0.0 -0.0 0.0 0.0 3.50985e-14 4.18242e-13 -2.5345e-14 78.5166 18.8231 -17.6439 -15.081 -7.86066 27.7556 -0.835223 25.0262 3.76209 2.89731e-09 5.73214e-09 -3.81608e-09 4.93552e-09 9.94919e-09 -6.65738e-09 2.89732e-09 5.73216e-09 -3.8161e-09 7.73091 5.47488 0.417314 2.89731e-09 5.73214e-09 -3.81608e-09 2.90554 0.965183 0.102902 2.89732e-09 5.73214e-09 -3.81608e-09 10.2786 0.731801 0.0259123 2.89731e-09 5.73215e-09 -3.81607e-09 2.22167 -0.733487 -0.20892 3.4876e-14 4.18242e-13 -2.55438e-14 -69.5422 15.0379 5.91798 20.7729 -14.016 -40.5909 0.146715 10.8543 -1.54418 3.87094e-09 6.85413e-10 -9.88078e-10 6.68008e-09 1.18422e-09 -1.73336e-09 3.87094e-09 6.85414e-10 -9.88078e-10 -7.73091 5.47488 -0.417314 3.87094e-09 6.85414e-10 -9.88078e-10 -2.90554 0.965183 -0.102902 3.87094e-09 6.85413e-10 -9.88082e-10 -10.2786 0.731801 -0.0259123 3.87094e-09 6.85414e-10 -9.88084e-10 -2.22167 -0.733487 0.20892 -2.03217e-16 0.0 -3.88251e-19 -26.0022 -32.1485 -34.9644 -0.451598 36.4498 -0.241107 2.95313 27.437 -11.6238 2.03217e-16 0.0 3.88251e-19 17.8452 -27.8761 -18.9944 -0.0580511 32.3928 -0.913811 -4.75303 23.4464 12.6726
